<svg xmlns="http://www.w3.org/2000/svg" width="1600" height="950" viewBox="0 0 1600 950">
  <defs>
    <marker id="arrow" markerWidth="10" markerHeight="10" refX="9" refY="3" orient="auto" markerUnits="strokeWidth">
      <path d="M0,0 L0,6 L9,3 z" fill="#374151"/>
    </marker>
    <marker id="arrowPink" markerWidth="10" markerHeight="10" refX="9" refY="3" orient="auto" markerUnits="strokeWidth">
      <path d="M0,0 L0,6 L9,3 z" fill="#A92035"/>
    </marker>
    <style>
      .title{font:700 25px Arial,sans-serif;fill:#111827}.section{font:700 14px Arial,sans-serif}.service{font:700 15px Arial,sans-serif;fill:#fff}.desc{font:12px Arial,sans-serif;fill:#fff}.dark{fill:#111827}.edgeLabel{font:12px Arial,sans-serif;fill:#374151}.num{fill:#111827;stroke:#111827}.numText{font:700 15px Arial,sans-serif;fill:#fff;text-anchor:middle;dominant-baseline:middle}.line{fill:none;stroke:#374151;stroke-width:2.2;marker-end:url(#arrow)}.dash{fill:none;stroke:#A92035;stroke-width:2.2;stroke-dasharray:8 6;marker-end:url(#arrowPink)}
    </style>
  </defs>
  <rect width="1600" height="950" fill="#fff"/>
  <text x="800" y="34" text-anchor="middle" class="title">VDCMS - AWS PRODUCTION ARCHITECTURE</text>

  <rect x="135" y="55" width="1415" height="850" fill="#fff" stroke="#232F3E" stroke-width="3"/>
  <rect x="135" y="55" width="1415" height="40" fill="#232F3E"/>
  <text x="155" y="81" font-family="Arial" font-size="17" font-weight="700" fill="#fff">AWS Cloud - Region ap-southeast-1</text>

  <rect x="10" y="400" width="108" height="105" rx="12" fill="#fff" stroke="#374151" stroke-width="2"/>
  <text x="64" y="430" text-anchor="middle" font-family="Arial" font-size="14" font-weight="700">Người dùng</text>
  <text x="64" y="454" text-anchor="middle" font-family="Arial" font-size="12">Guest / Admin</text>
  <text x="64" y="474" text-anchor="middle" font-family="Arial" font-size="12">Manager / Engineer</text>
  <circle cx="20" cy="390" r="17" class="num"/><text x="20" y="390" class="numText">1</text>

  <rect x="175" y="120" width="430" height="180" rx="12" fill="#EAF4FF" stroke="#6C8EBF" stroke-width="2"/>
  <text x="192" y="147" class="section" fill="#1E3A5F">EDGE &amp; FRONTEND</text>
  <rect x="205" y="178" width="165" height="82" rx="10" fill="#8C4FFF"/>
  <text x="287" y="203" text-anchor="middle" class="service">Amazon CloudFront</text><text x="287" y="224" text-anchor="middle" class="desc">CDN + HTTPS</text><text x="287" y="243" text-anchor="middle" class="desc">điểm truy cập duy nhất</text>
  <circle cx="202" cy="170" r="17" class="num"/><text x="202" y="170" class="numText">2</text>
  <rect x="410" y="178" width="165" height="82" rx="10" fill="#3F8624"/>
  <text x="492" y="203" text-anchor="middle" class="service">Amazon S3</text><text x="492" y="224" text-anchor="middle" class="desc">Frontend React/Vite</text><text x="492" y="243" text-anchor="middle" class="desc">private bucket + OAC</text>
  <circle cx="407" cy="170" r="17" class="num"/><text x="407" y="170" class="numText">3</text>

  <rect x="630" y="120" width="275" height="180" rx="12" fill="#FFF4E5" stroke="#D79B00" stroke-width="2"/>
  <text x="647" y="147" class="section" fill="#7C4A03">IDENTITY</text>
  <rect x="680" y="178" width="180" height="82" rx="10" fill="#DD344C"/>
  <text x="770" y="203" text-anchor="middle" class="service">Amazon Cognito</text><text x="770" y="224" text-anchor="middle" class="desc">User Pool + MFA TOTP</text><text x="770" y="243" text-anchor="middle" class="desc">JWT chuyển tiếp</text>
  <circle cx="677" cy="170" r="17" class="num"/><text x="677" y="170" class="numText">4</text>

  <rect x="930" y="120" width="575" height="180" rx="12" fill="#FDECF3" stroke="#B85450" stroke-width="2"/>
  <text x="947" y="147" class="section" fill="#7F1D1D">SECURITY &amp; ENTRY</text>
  <rect x="980" y="178" width="165" height="82" rx="10" fill="#DD344C"/>
  <text x="1062" y="203" text-anchor="middle" class="service">AWS WAF</text><text x="1062" y="224" text-anchor="middle" class="desc">Managed rules</text><text x="1062" y="243" text-anchor="middle" class="desc">rate limit</text>
  <circle cx="977" cy="170" r="17" class="num"/><text x="977" y="170" class="numText">5</text>
  <rect x="1220" y="178" width="225" height="82" rx="10" fill="#8C4FFF"/>
  <text x="1332" y="203" text-anchor="middle" class="service">Application Load Balancer</text><text x="1332" y="224" text-anchor="middle" class="desc">/health + sticky session</text><text x="1332" y="243" text-anchor="middle" class="desc">API / Socket.IO</text>
  <circle cx="1217" cy="170" r="17" class="num"/><text x="1217" y="170" class="numText">6</text>

  <rect x="175" y="340" width="970" height="370" rx="12" fill="#F8FAFC" stroke="#248814" stroke-width="3"/>
  <text x="195" y="368" class="section" fill="#166534">Amazon VPC 10.40.0.0/16</text>
  <rect x="205" y="390" width="550" height="265" rx="10" fill="#EEF7FF" stroke="#6C8EBF" stroke-width="2"/>
  <text x="222" y="418" class="section" fill="#1E3A5F">PRIVATE APPLICATION SUBNETS - 2 AZ</text>
  <rect x="315" y="468" width="325" height="118" rx="10" fill="#ED7100"/>
  <text x="477" y="495" text-anchor="middle" class="service">Amazon EC2 Auto Scaling</text><text x="477" y="518" text-anchor="middle" class="desc">Express API + Socket.IO</text><text x="477" y="539" text-anchor="middle" class="desc">Transcribe worker + systemd</text><text x="477" y="562" text-anchor="middle" font-family="Arial" font-size="12" fill="#fff">hiện giới hạn 1 instance</text>
  <circle cx="312" cy="460" r="17" class="num"/><text x="312" y="460" class="numText">7</text>
  <rect x="785" y="390" width="330" height="265" rx="10" fill="#F2EEFC" stroke="#9673A6" stroke-width="2"/>
  <text x="802" y="418" class="section" fill="#4C1D5F">PRIVATE DATABASE SUBNETS - 2 AZ</text>
  <rect x="840" y="468" width="220" height="103" rx="10" fill="#527FFF"/>
  <text x="950" y="495" text-anchor="middle" class="service">Amazon RDS MySQL</text><text x="950" y="518" text-anchor="middle" class="desc">TLS + encryption</text><text x="950" y="540" text-anchor="middle" class="desc">backup + private only</text>
  <circle cx="837" cy="460" r="17" class="num"/><text x="837" y="460" class="numText">8</text>

  <rect x="1170" y="340" width="335" height="370" rx="12" fill="#ECFDF5" stroke="#00A88F" stroke-width="3"/>
  <text x="1190" y="368" class="section" fill="#065F46">DATA, QUEUE &amp; AI</text>
  <rect x="1205" y="397" width="255" height="70" rx="10" fill="#3F8624"/>
  <text x="1332" y="422" text-anchor="middle" class="service">Amazon S3 Data</text><text x="1332" y="444" text-anchor="middle" class="desc">documents • chat media • audio</text>
  <circle cx="1202" cy="389" r="17" class="num"/><text x="1202" y="389" class="numText">9</text>
  <rect x="1205" y="498" width="255" height="70" rx="10" fill="#FF4F8B"/>
  <text x="1332" y="523" text-anchor="middle" class="service">Amazon SQS + DLQ</text><text x="1332" y="545" text-anchor="middle" class="desc">Transcribe queue • retry 3 lần</text>
  <circle cx="1202" cy="490" r="19" class="num"/><text x="1202" y="490" class="numText">10</text>
  <rect x="1205" y="599" width="255" height="70" rx="10" fill="#01A88D"/>
  <text x="1332" y="624" text-anchor="middle" class="service">Amazon Transcribe</text><text x="1332" y="646" text-anchor="middle" class="desc">vi-VN / en-US • audio → text</text>
  <circle cx="1202" cy="591" r="19" class="num"/><text x="1202" y="591" class="numText">11</text>

  <rect x="175" y="750" width="970" height="125" rx="12" fill="#FFF7ED" stroke="#D79B00" stroke-width="2"/>
  <text x="192" y="778" class="section" fill="#7C4A03">SECURITY, SECRETS &amp; OPERATIONS</text>
  <rect x="235" y="802" width="850" height="50" rx="9" fill="#FFB900"/>
  <text x="660" y="824" text-anchor="middle" font-family="Arial" font-size="14" font-weight="700" fill="#111827">IAM Role • Secrets Manager • Systems Manager • CloudWatch</text><text x="660" y="843" text-anchor="middle" font-family="Arial" font-size="12" fill="#111827">least privilege • secret • no public SSH • log/metric</text>
  <circle cx="232" cy="794" r="19" class="num"/><text x="232" y="794" class="numText">12</text>

  <rect x="1170" y="750" width="335" height="125" rx="12" fill="#F5F3FF" stroke="#9673A6" stroke-width="2"/>
  <text x="1187" y="778" class="section" fill="#4C1D5F">EMAIL</text>
  <rect x="1220" y="802" width="240" height="50" rx="9" fill="#8C4FFF"/>
  <text x="1340" y="824" text-anchor="middle" class="service">Amazon SES</text><text x="1340" y="843" text-anchor="middle" class="desc">verify email • reset password</text>
  <circle cx="1217" cy="794" r="19" class="num"/><text x="1217" y="794" class="numText">13</text>

  <path d="M118 440 H205" class="line"/><text x="145" y="430" class="edgeLabel">HTTPS</text>
  <path d="M370 219 H410" class="line"/><text x="375" y="209" class="edgeLabel">static</text>
  <path d="M370 190 C560 105 820 105 980 190" class="line"/><text x="665" y="106" class="edgeLabel">/api • /socket.io</text>
  <path d="M1145 219 H1220" class="line"/><text x="1152" y="209" class="edgeLabel">allowed</text>
  <path d="M1332 260 V320 H477 V468" class="line"/><text x="930" y="311" class="edgeLabel">HTTP :5000</text>
  <path d="M64 400 V320 H770 V260" class="dash"/><text x="350" y="311" class="edgeLabel">đăng nhập chuyển tiếp</text>
  <path d="M770 260 V440 H640 V478" class="dash"/><text x="695" y="430" class="edgeLabel">JWT RS256</text>
  <path d="M640 520 H840" class="line"/><text x="708" y="510" class="edgeLabel">MySQL TLS</text>
  <path d="M640 485 H1205" class="line"/><text x="870" y="475" class="edgeLabel">private files</text>
  <path d="M640 535 H1205" class="line"/><text x="900" y="557" class="edgeLabel">tạo job / worker nhận</text>
  <path d="M640 570 H1180 V634 H1205" class="line"/><text x="900" y="600" class="edgeLabel">Start / Get Transcribe job</text>
  <path d="M640 586 V720 H1340 V802" class="line"/><text x="900" y="710" class="edgeLabel">send email</text>
  <path d="M660 802 V600" class="dash"/><text x="670" y="744" class="edgeLabel">role • secret • log</text>

  <text x="185" y="895" font-family="Arial" font-size="12" fill="#374151"><tspan font-weight="700">Chú thích:</tspan> đường liền = luồng chính • nét đứt = xác thực/chuyển tiếp/vận hành • OAC = Origin Access Control • DLQ = Dead-Letter Queue</text>
</svg>
